<svg width="98" height="57" viewBox="0 0 98 57" fill="none" xmlns="http://www.w3.org/2000/svg">
<path d="M2.08203 40.8652C0.871094 39.9473 0.578125 39.0195 1.20312 38.082L3.45898 34.6836C4.20117 33.5703 5.28516 33.5117 6.71094 34.5078C7.80469 35.2695 9.23047 36.0605 10.9883 36.8809C12.7656 37.6816 14.6309 38.082 16.584 38.082C17.9512 38.082 19.2695 37.9258 20.5391 37.6133C21.8086 37.3008 22.7754 36.6953 23.4395 35.7969C24.1035 34.8984 24.4355 33.834 24.4355 32.6035C24.4355 31.7246 24.2891 30.9531 23.9961 30.2891C23.7031 29.625 23.2246 29.0781 22.5605 28.6484C21.8965 28.2188 21.2129 27.8574 20.5098 27.5645C19.2793 27.0566 17.7266 26.5586 15.8516 26.0703C13.9961 25.5625 12.1602 24.957 10.3438 24.2539C8.72266 23.6289 7.23828 22.7695 5.89062 21.6758C4.54297 20.582 3.49805 19.3516 2.75586 17.9844C2.01367 16.6172 1.64258 14.791 1.64258 12.5059C1.64258 9.79102 2.52148 7.4668 4.2793 5.5332C6.03711 3.59961 8.05859 2.35938 10.3438 1.8125C12.6289 1.26562 14.9336 0.992188 17.2578 0.992188C19.5625 0.992188 21.9355 1.34375 24.377 2.04688C26.8379 2.75 28.6934 3.62891 29.9434 4.68359C31.1738 5.71875 31.4766 6.65625 30.8516 7.49609L28.4785 10.6895C27.6777 11.7832 26.6035 11.8711 25.2559 10.9531C24.3965 10.3672 23.2148 9.71289 21.7109 8.99023C20.2266 8.26758 18.6738 7.90625 17.0527 7.90625C15.9004 7.90625 14.8359 8.00391 13.8594 8.19922C12.9023 8.39453 12.0527 8.86328 11.3105 9.60547C10.5684 10.3477 10.1973 11.2656 10.1973 12.3594C10.1973 13.4141 10.4707 14.2734 11.0176 14.9375C11.5645 15.582 12.1699 16.0703 12.834 16.4023C13.498 16.7148 14.1719 16.9785 14.8555 17.1934C16.9648 17.877 18.8496 18.4824 20.5098 19.0098C22.1699 19.5176 23.7031 20.084 25.1094 20.709C27.0625 21.5879 28.5566 22.4668 29.5918 23.3457C30.627 24.2246 31.4766 25.4258 32.1406 26.9492C32.8242 28.4727 33.166 30.2891 33.166 32.3984C33.166 35.5234 32.1699 38.1113 30.1777 40.1621C28.1855 42.1934 25.9688 43.502 23.5273 44.0879C21.1055 44.6934 18.7422 44.9961 16.4375 44.9961C13.0391 44.9961 10.2754 44.6641 8.14648 44C6.01758 43.3555 3.99609 42.3105 2.08203 40.8652ZM45.9805 56.8906C45.0039 56.8906 44.5156 56.3047 44.5156 55.1328V1.92969C44.5156 0.757812 45.0039 0.171875 45.9805 0.171875H48.9102C49.8867 0.171875 50.375 0.757812 50.375 1.92969V55.1328C50.375 56.3047 49.8867 56.8906 48.9102 56.8906H45.9805ZM66.7051 44C65.1426 44 64.3613 43.2676 64.3613 41.8027V4.18555C64.3613 2.7207 65.1426 1.98828 66.7051 1.98828H76.666C84.166 1.98828 89.2246 2.91602 91.8418 4.77148C94.4785 6.60742 95.7969 9.43945 95.7969 13.2676C95.7969 15.9434 94.8105 18.0137 92.8379 19.4785C90.8848 20.9434 88.9902 21.793 87.1543 22.0273V22.1152C88.9316 22.2324 91.0215 23.1309 93.4238 24.8105C95.8262 26.4902 97.0273 28.8633 97.0273 31.9297C97.0273 35.5234 95.5625 38.4336 92.6328 40.6602C89.7031 42.8867 84.8691 44 78.1309 44H66.7051ZM72.916 36.8516H77.1934C81.334 36.8516 84.1465 36.4902 85.6309 35.7676C87.1348 35.0449 87.8867 33.5801 87.8867 31.373C87.8867 29.3027 87.0176 27.877 85.2793 27.0957C83.5605 26.2949 80.8652 25.8945 77.1934 25.8945H72.916V36.8516ZM72.916 18.9805H76.7539C79.2734 18.9805 81.627 18.541 83.8145 17.6621C86.0215 16.7832 87.125 15.416 87.125 13.5605C87.125 12.1152 86.5098 11.0215 85.2793 10.2793C84.0684 9.51758 81.2266 9.13672 76.7539 9.13672H72.916V18.9805Z" fill="black"/>
</svg>
