<svg width="41" height="32" viewBox="0 0 41 32" fill="none" xmlns="http://www.w3.org/2000/svg">
<path d="M8.21875 3.08125L1.75 16V27.25C1.75 28.2446 2.14509 29.1984 2.84835 29.9016C3.55161 30.6049 4.50544 31 5.5 31H35.5C36.4946 31 37.4484 30.6049 38.1516 29.9016C38.8549 29.1984 39.25 28.2446 39.25 27.25V16L32.7812 3.08125C32.4708 2.45648 31.9922 1.9307 31.3993 1.56302C30.8064 1.19535 30.1227 1.00037 29.425 1H11.575C10.8773 1.00037 10.1936 1.19535 9.60071 1.56302C9.0078 1.9307 8.52921 2.45648 8.21875 3.08125V3.08125Z" stroke="#111111" stroke-width="2" stroke-linecap="round" stroke-linejoin="round"/>
</svg>
